PathFileType	4	(X/Y/Z)	C:/ViconProjects/foot_20160225/trc/2_test01_dynamic.trc
DataRate	CameraRate	NumFrames	NumMarkers	Units	OrigDataRate	OrigDataStartFrame	OrigNumFrames
120.000000	120.000000	5	39	mm	120.000000	512	682
Frame#	Time	RCUNE			RNAVI			RMT3			LCUNE			LNAVI			LMT3			ROHEL			RIHEL			LOHEL			LIHEL			RSHAN			LSHAN			RTHI			LTHI			ROWR			RELB			RBSH			LOWR			LELB			LBSH			RHEAD			THEAD			FHEAD			T10			RTOE			RHEL			RMT1			RMT5			RANK			RKNE			LTOE			LHEL			LMT1			LMT5			LANK			LKNE			VBWT			RFWT			LFWT			
		X0	Y0	Z0	X1	Y1	Z1	X2	Y2	Z2	X3	Y3	Z3	X4	Y4	Z4	X5	Y5	Z5	X6	Y6	Z6	X7	Y7	Z7	X8	Y8	Z8	X9	Y9	Z9	X10	Y10	Z10	X11	Y11	Z11	X12	Y12	Z12	X13	Y13	Z13	X14	Y14	Z14	X15	Y15	Z15	X16	Y16	Z16	X17	Y17	Z17	X18	Y18	Z18	X19	Y19	Z19	X20	Y20	Z20	X21	Y21	Z21	X22	Y22	Z22	X23	Y23	Z23	X24	Y24	Z24	X25	Y25	Z25	X26	Y26	Z26	X27	Y27	Z27	X28	Y28	Z28	X29	Y29	Z29	X30	Y30	Z30	X31	Y31	Z31	X32	Y32	Z32	X33	Y33	Z33	X34	Y34	Z34	X35	Y35	Z35	X36	Y36	Z36	X37	Y37	Z37	X38	Y38	Z38	
512	4.266667	-1243.787354	334.656982	36.985149	-1256.562256	234.551941	52.485489	-1348.281250	309.613861	40.803230	-587.361450	12.675260	163.433060	-636.364136	105.192368	157.675354	-619.026611	36.004799	69.468292	-1169.256104	308.700226	41.562840	-1179.748535	234.649353	41.797729	-585.854919	41.070560	240.784058	-608.570190	111.333214	236.053360	-1244.532227	256.253723	237.160126	-874.947571	70.020447	311.998932	-1255.007446	295.480652	596.332397	-1104.525146	51.738281	567.472473	-952.030212	498.380219	797.427734	-935.651062	502.001801	1061.036011	-1040.001709	424.962036	1372.524658	-1358.819336	-71.880623	952.959717	-1143.393311	-109.168022	1089.033325	-1084.244263	21.347481	1392.901001	-1009.734985	237.820465	1622.846558	-1123.725220	246.808197	1682.988037	-1228.396729	240.308334	1591.498657	-910.992737	140.678574	1246.773193	-1394.945679	287.835663	39.626171	-1137.919189	266.377075	41.872211	-1356.536255	270.425568	45.216450	-1308.724365	351.825012	36.174660	-1201.962891	327.802338	67.206123	-1222.041748	341.788940	465.431274	-639.394287	59.616650	33.056351	-590.819580	80.415466	268.236816	-632.917114	72.544327	65.501068	-598.063232	6.070420	102.212044	-615.867310	18.418079	214.366135	-963.454651	1.294210	430.541321	-887.527771	213.156387	905.034912	-1123.094238	341.179871	922.302368	-1107.334351	54.627941	906.961609
513	4.275000	-1243.641602	334.725616	36.915771	-1256.474976	234.574158	52.345181	-1348.392212	309.614441	40.721031	-606.305115	13.470570	172.468353	-655.277039	105.598137	162.047760	-636.084167	31.136299	78.334473	-1168.714966	308.593933	41.651260	-1180.051392	234.582626	41.731991	-608.058594	43.839088	249.287018	-632.040527	113.964073	240.307999	-1247.178589	256.955139	236.631531	-897.977478	71.098900	313.995026	-1262.372192	295.429749	596.178650	-1124.669434	55.206169	570.581604	-976.828979	499.360229	798.382874	-955.412903	503.950409	1061.636353	-1054.276367	426.385925	1375.250000	-1362.850464	-72.354507	948.049011	-1150.026611	-107.454147	1089.962524	-1096.814209	22.499969	1395.378662	-1023.125061	239.337173	1625.335938	-1136.645142	247.918793	1685.538696	-1241.381226	241.533493	1593.994507	-922.042603	141.772308	1249.913818	-1395.008057	288.003723	39.529560	-1137.868530	266.299011	41.983528	-1356.546143	270.528412	45.169910	-1308.707275	351.959473	36.116840	-1201.893433	327.658600	67.249908	-1227.337158	342.875214	464.968323	-652.591248	48.050419	41.160309	-614.901672	83.796989	275.298340	-649.697754	65.861488	71.467216	-615.135925	4.603280	111.980568	-636.824768	19.694639	222.547256	-988.902649	1.517420	430.990295	-900.262085	214.337112	906.787598	-1133.376953	342.587891	923.961548	-1120.612793	57.202190	910.029846
514	4.283333	-1243.581421	334.802124	36.896358	-1256.475708	234.618347	52.303902	-1348.448730	309.713501	40.662979	-627.759766	14.133810	181.321472	-676.951416	105.547653	165.725876	-655.989197	26.969900	86.231247	-1168.634888	308.671387	41.647099	-1179.916748	234.595032	41.867081	-630.565979	46.929619	255.906906	-655.157837	116.722229	244.290726	-1249.571167	257.992218	236.017715	-921.340576	72.589043	316.345093	-1269.803589	295.595551	595.453735	-1144.186035	58.994579	574.169739	-1003.312622	501.563690	800.119995	-974.547363	506.093079	1062.290405	-1068.124512	427.473328	1377.979736	-1366.493896	-72.461823	943.154907	-1157.406006	-105.461143	1090.848999	-1109.147583	23.242069	1397.903809	-1035.952515	240.379150	1627.950073	-1149.221436	249.306335	1688.347290	-1253.840332	242.780090	1596.758545	-935.037659	143.660980	1252.317871	-1394.802002	288.469299	39.082321	-1137.806274	266.203918	42.075981	-1356.456421	270.615692	45.134911	-1308.514282	352.351685	35.867939	-1201.957520	327.457123	67.131569	-1231.727295	344.015411	464.621490	-672.032104	44.117378	46.759380	-638.196045	87.973534	280.972015	-669.289063	61.805859	76.751541	-634.255310	2.827220	121.056084	-658.795898	21.675421	229.917816	-1013.930908	2.326730	432.133636	-912.475281	215.564148	909.470947	-1145.237915	344.536011	926.299927	-1133.752686	59.514462	912.937622
515	4.291667	-1243.498779	334.883209	36.814770	-1256.356567	234.882797	52.066891	-1348.503174	309.897247	40.490170	-651.223206	14.742220	188.804199	-699.671082	105.201187	168.892593	-679.060669	23.688379	92.447456	-1168.509521	308.574371	41.651958	-1180.041260	234.576752	41.943001	-653.766479	50.235241	261.587921	-678.294128	119.258888	247.336899	-1251.969971	258.878113	235.267029	-945.049561	74.201057	318.894470	-1276.595825	295.856903	594.299622	-1164.075317	62.477219	578.375793	-1028.880127	503.190308	801.979004	-994.016296	508.276062	1063.481445	-1082.069214	428.316406	1380.704468	-1369.129395	-72.871109	938.048401	-1164.055176	-103.792610	1092.033203	-1120.962402	24.080139	1400.609009	-1047.874878	241.478470	1631.135986	-1161.740967	250.585617	1691.175049	-1266.344360	243.755890	1599.344971	-947.719727	145.063644	1255.515015	-1394.914795	288.803314	38.978882	-1137.753296	266.101013	42.147732	-1356.541870	270.727020	45.111710	-1308.576538	352.545074	35.776230	-1201.872070	327.432648	66.910797	-1235.813232	345.362274	464.063293	-694.944275	40.877869	51.453911	-660.968689	92.399948	284.833282	-692.138916	58.784389	81.497566	-657.797852	0.723510	129.401047	-681.006714	24.526390	236.579178	-1038.193970	3.507210	433.970123	-924.295715	216.829330	912.338440	-1156.508911	346.161621	928.783142	-1146.042236	60.794708	916.421692
516	4.300000	-1243.507935	334.942596	36.781250	-1256.377563	234.926147	52.098721	-1348.507935	310.142426	40.357922	-677.135864	15.342860	194.238892	-723.662109	106.552834	171.808990	-705.372070	21.454460	97.631363	-1168.361328	308.567902	41.703571	-1180.008789	234.624100	42.091801	-677.383972	52.872280	265.337036	-701.461731	121.729279	249.873428	-1253.777344	259.812164	234.839783	-969.186279	75.977837	322.021271	-1283.303467	296.590912	593.346985	-1183.844849	65.522346	583.054382	-1054.617920	504.700012	804.568848	-1013.914063	510.075531	1064.791504	-1095.352295	429.080139	1383.577393	-1371.599854	-73.636177	933.243347	-1170.676880	-102.024803	1093.297974	-1132.463135	24.618860	1403.521851	-1059.891113	242.556747	1634.427979	-1174.564697	251.713852	1693.907715	-1278.638672	244.937332	1602.043701	-958.719299	146.621887	1258.829590	-1394.919922	288.744446	38.921909	-1137.728271	266.057312	42.182152	-1356.522705	270.807007	45.123211	-1308.564331	352.748840	35.654160	-1203.058105	327.016937	66.073288	-1239.245117	346.137238	463.583466	-719.801086	37.847301	55.328411	-683.622070	95.972054	287.707642	-717.205750	56.549339	85.489502	-684.873352	-0.810370	135.170670	-705.172058	26.858959	242.304871	-1063.035522	4.478810	436.473328	-935.746521	217.631485	915.472473	-1167.660156	347.349701	931.243835	-1157.442383	61.078548	919.299438
